<?xml version="1.0" standalone="no"?><!DOCTYPE svg PUBLIC "-//W3C//DTD SVG 1.1//EN" "http://www.w3.org/Graphics/SVG/1.1/DTD/svg11.dtd"><svg t="1682870923139" class="icon" viewBox="0 0 1024 1024" version="1.1" xmlns="http://www.w3.org/2000/svg" p-id="3912" xmlns:xlink="http://www.w3.org/1999/xlink" width="200" height="200"><path d="M0 457.1136h37.2736v390.7584H0zM409.6 144.1792h4.096l12.288 5.7344a12.6976 12.6976 0 0 1 4.096 0l8.192 4.5056 12.288 9.4208 12.288 7.7824 16.384 11.4688 11.8784 9.4208a163.84 163.84 0 0 1 15.1552 13.9264 295.3216 295.3216 0 0 1 24.1664 26.624 295.7312 295.7312 0 0 1 65.536 186.368H1024a279.3472 279.3472 0 0 0-279.3472-279.3472H401.8176l8.6016 3.2768z" fill="#1296db" p-id="3913"></path><path d="M279.3472 140.4928A279.3472 279.3472 0 0 0 0 419.84h558.2848a278.9376 278.9376 0 0 0-278.9376-279.3472zM521.4208 457.1136h37.2736v390.7584h-37.2736zM54.8864 847.872h446.464v-390.7584H54.8864z m74.1376-335.0528h297.7792v56.1152H129.024z m0 111.8208h297.7792v55.7056H129.024z m0 111.8208h297.7792v55.7056H129.024zM1024 847.872H595.5584v-390.7584H1024z m-135.5776-183.9104a97.8944 97.8944 0 0 0-36.4544 8.192 51.6096 51.6096 0 0 0-20.0704 16.384 36.0448 36.0448 0 0 0-6.5536 20.8896 40.96 40.96 0 0 0 5.7344 20.8896 81.92 81.92 0 0 0-5.7344 9.0112 97.8944 97.8944 0 0 0-5.3248 9.8304 122.88 122.88 0 0 0-8.192 33.1776 133.12 133.12 0 0 0-21.2992-24.9856 40.96 40.96 0 0 0 0-20.0704 35.6352 35.6352 0 0 0-9.8304-18.0224 56.5248 56.5248 0 0 0-22.1184-11.8784 86.8352 86.8352 0 0 0-35.2256-2.048 81.92 81.92 0 0 0-26.2144 6.5536 99.1232 99.1232 0 0 0-21.7088 11.8784 67.1744 67.1744 0 0 0-14.7456 13.1072 19.2512 19.2512 0 0 0-5.3248 11.0592 4.096 4.096 0 0 0 4.5056 4.5056h12.6976a107.3152 107.3152 0 0 1 16.7936 0 40.96 40.96 0 0 1 18.0224 5.3248 86.4256 86.4256 0 0 1 11.0592 7.3728l11.0592 7.3728 10.6496 6.5536a37.6832 37.6832 0 0 0 11.4688 3.6864h8.192a25.8048 25.8048 0 0 0 9.4208 0 24.576 24.576 0 0 0 9.8304-5.7344 30.72 30.72 0 0 0 8.6016-11.8784 117.9648 117.9648 0 0 1 11.0592 13.9264 122.88 122.88 0 0 1 10.6496 18.432 89.2928 89.2928 0 0 0 0 10.24v10.6496a72.4992 72.4992 0 0 1 0 9.8304 35.6352 35.6352 0 0 1-2.048 7.7824 8.6016 8.6016 0 0 0 0 4.9152 6.144 6.144 0 0 0 0 3.2768 14.7456 14.7456 0 0 0 7.3728 0 11.4688 11.4688 0 0 0 6.144 0 4.9152 4.9152 0 0 0 0-3.2768 9.8304 9.8304 0 0 0 0-5.3248 26.2144 26.2144 0 0 1-2.048-8.6016v-13.9264-14.7456a98.7136 98.7136 0 0 1 0-12.6976v-13.1072a122.88 122.88 0 0 1 2.8672-13.1072 57.344 57.344 0 0 1 3.6864-11.8784 55.7056 55.7056 0 0 1 5.3248-9.8304 30.3104 30.3104 0 0 0 9.8304 9.4208 31.9488 31.9488 0 0 0 10.24 2.8672 22.1184 22.1184 0 0 0 9.0112 0l7.3728-2.048a40.96 40.96 0 0 0 11.4688-5.7344 98.7136 98.7136 0 0 0 9.8304-8.6016l9.8304-9.4208 10.24-9.0112a44.2368 44.2368 0 0 1 17.2032-8.192l16.7936-2.4576h12.6976c3.2768 0 4.9152-2.048 4.9152-4.5056s-2.048-6.144-6.5536-10.24a104.448 104.448 0 0 0-17.2032-11.0592 150.3232 150.3232 0 0 0-24.1664-8.6016 79.4624 79.4624 0 0 0-27.8528-2.4576z m-100.352 92.5696a85.1968 85.1968 0 0 0-40.96-20.8896 90.112 90.112 0 0 0-43.008 0 157.696 157.696 0 0 1 19.6608 0 88.064 88.064 0 0 1 20.48 2.8672 108.9536 108.9536 0 0 1 20.48 8.6016 102.4 102.4 0 0 1 19.6608 14.7456z m122.88-63.8976a81.92 81.92 0 0 0-44.6464 7.3728 101.9904 101.9904 0 0 0-34.816 29.0816l3.2768 5.7344a115.0976 115.0976 0 0 1 18.8416-20.48 91.7504 91.7504 0 0 1 19.2512-12.6976 74.1376 74.1376 0 0 1 19.6608-6.5536 93.3888 93.3888 0 0 1 18.0224-2.048z" fill="#1296db" p-id="3914"></path></svg>