<?xml version="1.0" standalone="no"?><!DOCTYPE svg PUBLIC "-//W3C//DTD SVG 1.1//EN" "http://www.w3.org/Graphics/SVG/1.1/DTD/svg11.dtd"><svg t="1682871137435" class="icon" viewBox="0 0 1326 1024" version="1.1" xmlns="http://www.w3.org/2000/svg" p-id="6365" xmlns:xlink="http://www.w3.org/1999/xlink" width="258.984375" height="200"><path d="M0 726.6125a296.610348 296.610348 0 0 0 554.280231 145.819612h425.031029a173.98931 173.98931 0 1 0 306.552594-133.391804V471.428178A121.792517 121.792517 0 0 0 1159.928734 345.493059h-67.938683V147.476653l46.39715-57.996436A39.768985 39.768985 0 0 0 1077.076682 38.940465l-55.510875 68.767203a39.768985 39.768985 0 0 0-9.113726 24.855616v212.929775H803.664909L694.3002 90.308737a136.705887 136.705887 0 0 0-140.84849-82.852052H276.725855a106.050627 106.050627 0 0 0-106.050627 96.108381L132.563284 479.713384A296.610348 296.610348 0 0 0 0 726.6125z m1056.363669 121.792517a94.45134 94.45134 0 1 1 94.45134 94.45134 94.45134 94.45134 0 0 1-94.45134-94.45134z m-471.428179-55.510875a295.781827 295.781827 0 0 0-367.863113-352.121223l33.140821-331.40821A26.512657 26.512657 0 0 1 276.725855 82.852052h275.068814c45.568629 0 50.539752 7.456685 70.424245 43.911588l118.478435 281.696979a39.768985 39.768985 0 0 0 36.454903 19.884492H1159.928734a41.426026 41.426026 0 0 1 42.254547 42.254547v212.101254a172.332269 172.332269 0 0 0-54.682355-9.942246 173.98931 173.98931 0 0 0-165.704104 118.478435zM82.852052 726.6125a217.072377 217.072377 0 1 1 217.072378 217.072377A217.072377 217.072377 0 0 1 82.852052 726.6125z" fill="#1296db" p-id="6366"></path><path d="M615.59075 415.088783a39.768985 39.768985 0 0 0 37.283423-54.682355l-82.852052-199.673446A39.768985 39.768985 0 0 0 497.112315 190.559721l82.852052 198.844926a39.768985 39.768985 0 0 0 35.626383 25.684136z" fill="#1296db" p-id="6367"></path></svg>