<?xml version="1.0" standalone="no"?><!DOCTYPE svg PUBLIC "-//W3C//DTD SVG 1.1//EN" "http://www.w3.org/Graphics/SVG/1.1/DTD/svg11.dtd"><svg t="1682865089167" class="icon" viewBox="0 0 1024 1024" version="1.1" xmlns="http://www.w3.org/2000/svg" p-id="2902" xmlns:xlink="http://www.w3.org/1999/xlink" width="200" height="200"><path d="M629.4 987.4h214.7c36.5 0 64.4-27.9 64.4-64.4V450.7l58 58c8.6 8.6 21.5 8.6 30.1 0 8.6-8.6 8.6-21.5 0-30.1L556.4 38.5c-25.8-25.8-66.6-25.8-90.2 0L26.1 478.6c-8.6 8.6-8.6 21.5 0 30.1 4.3 4.3 8.6 6.4 15 6.4s10.7-2.1 15-6.4l58-58V923c0 36.5 27.9 64.4 64.4 64.4h214.7m-42.9-42.9H178.6c-12.9 0-21.5-8.6-21.5-21.5V407.8L496.3 68.6c8.6-8.6 21.5-8.6 30.1 0l339.2 339.2V923c0 12.9-8.6 21.5-21.5 21.5H672.4m-172.5-407c0.3-6.7 0.2-13.3 1.1-19.6 1.5-10.5 9.3-17.5 18-17 9.4 0.5 16.5 8.4 16.6 19.5 0.2 35.6 0.1 71.2 0.1 106.8v11.3c6.2-9.7 11-17.7 16.3-25.3 26.5-38.6 63.7-55.2 107.7-58.2 14.8-1 29.6-2.4 44.4-3.7 8.1-0.7 15.5-3.6 22.6-7.8 12.4-7.3 20-3.8 23.8 10.7 4.2 16.3 3 32.8 1.1 49.3-4.5 38.5-14.9 75-34.7 108-26.9 44.7-66.8 66.6-116.5 70.2-18.1 1.3-36.2 2.2-54.1 5.7-7.6 1.5-12.4 4.6-10.9 14 0.7 4.9 0.4 10-0.2 14.9-1 9.5-7.9 16.1-16.6 16.3-8.9 0.3-15.6-5.4-17.4-15.1-0.7-3.6-0.9-7.4-0.9-11.1-0.1-44-0.1-88.1 0.1-132.1 0-6.3-0.8-7.9-7.6-7.4-53.6 3.9-104-6.3-149.1-38.7-33.9-24.3-50.3-59.4-56.1-101-2.1-15.1-3.6-30.3-5.6-45.5-1.5-11.5-4.8-22.3-11.2-32.1-5.5-8.5-3.7-14.9 4.5-20.5 7.5-5.1 16.3-6.4 24.7-6.7 53.8-1.8 104.4 9.3 149.3 42.4 22.6 16.7 37.9 39.1 47.1 66.3 0.8 2.1 0.7 4.9 3.5 6.4z m33.2 231.8c32.7-9.6 61-21.8 80.1-50.6 9-13.6 16.7-28 24.5-42.3 8.5-15.7 17.5-31 35.6-40.6-19.8-1.9-33 6.7-44.6 18.8-11 11.5-19.8 24.9-28.3 38.4-12.2 19.3-25.9 37.2-43.5 51.6-8.3 6.7-15.8 14.3-23.8 24.7zM356.7 508.9c-0.1 13.4 4.9 24.2 13.4 33.6 12.9 14.3 29 23.7 45.4 32.4 20.8 11.1 40.2 23.8 56.7 41.5 7.1 7.6 15.4 14 23.2 20.9l1.8-1.5c-9-20.7-16.6-42.5-34-57.7-17.8-15.6-37.8-27.7-59.7-36.4-17.7-7.1-34.9-15.5-46.8-32.8z" p-id="2903" fill="#1296db"></path></svg>